<svg width="48" height="48" viewBox="0 0 48 48" fill="none" xmlns="http://www.w3.org/2000/svg">
<rect y="0.057251" width="47.0485" height="47.0485" rx="5.95238" fill="#0ACF83"/>
<mask id="mask0_1571_1179" style="mask-type:alpha" maskUnits="userSpaceOnUse" x="0" y="0" width="48" height="48">
<rect width="47.0485" height="47.0485" rx="5.95238" fill="#0ACF83"/>
</mask>
<g mask="url(#mask0_1571_1179)">
<path d="M30.382 22.404C31.3006 25.8324 29.2622 29.3573 25.8291 30.2773C22.3959 31.1972 18.8681 29.1637 17.9495 25.7353C17.0309 22.307 19.0693 18.782 22.5024 17.8621C25.9356 16.9422 29.4634 18.9757 30.382 22.404Z" fill="white"/>
<path fill-rule="evenodd" clip-rule="evenodd" d="M-0.536055 3.52646C-1.40812 4.39747 -1.40861 5.80917 -0.537155 6.67958L10.4046 17.6081C8.92522 20.7436 8.50593 24.3978 9.47293 28.0067C11.6442 36.1101 19.9827 40.9165 28.0974 38.7422C36.2121 36.5679 41.0302 28.2361 38.8589 20.1327C36.6876 12.0293 28.3491 7.22288 20.2344 9.39721C19.0127 9.72457 17.8657 10.1915 16.806 10.7762L6.08362 0.0667989C5.21216 -0.803605 3.79876 -0.803113 2.92669 0.0678989L-0.536055 3.52646ZM26.4341 32.5347C31.1157 31.2803 33.8953 26.4735 32.6427 21.7985C31.39 17.1235 26.5793 14.3505 21.8978 15.6049C17.2162 16.8594 14.4365 21.6661 15.6892 26.3412C16.9419 31.0162 21.7525 33.7892 26.4341 32.5347Z" fill="white"/>
</g>
</svg>
